<svg width="1000" height="410" viewBox="0 0 1000 410" fill="none" xmlns="http://www.w3.org/2000/svg">
<path d="M1000 37.9616C1000 36.8548 999.566 35.7922 998.792 35.0023L965.73 1.26578C964.936 0.45614 963.851 0 962.718 0L37.2817 0C36.1488 0 35.0636 0.456139 34.2701 1.26577L1.20787 35.0023C0.433705 35.7922 0 36.8548 0 37.9616L0 257.983C0 259.102 0.443321 260.175 1.23269 260.968L110.46 370.569C111.251 371.364 112.326 371.81 113.446 371.81H251.948C252.874 371.81 253.774 372.115 254.51 372.678L257.837 375.223C258.882 376.023 259.495 377.264 259.495 378.581V391.166C259.495 392.298 259.946 393.381 260.75 394.177C262.941 396.349 267.376 400.768 268.882 402.434L274.313 408.445C275.113 409.331 276.25 409.836 277.442 409.836H426.663C427.945 409.836 429.158 409.252 429.959 408.249L437.895 398.305C438.493 397.556 438.819 396.626 438.819 395.667V355.033C438.819 353.912 438.374 352.838 437.582 352.045L361.51 275.87C360.719 275.078 359.646 274.632 358.526 274.632H185.128C184.006 274.632 182.931 274.185 182.139 273.389L143.376 234.418L102.579 195.605C101.741 194.807 101.266 193.7 101.266 192.542L101.266 107.378C101.266 106.257 101.71 105.183 102.502 104.39L108.469 98.4151C109.26 97.6228 110.333 97.1776 111.452 97.1776L407.98 97.1776C409.05 97.1776 410.08 97.5849 410.862 98.3171L449.024 134.064C449.805 134.796 450.836 135.204 451.906 135.204H548.094C549.164 135.204 550.194 134.796 550.976 134.064L589.138 98.3171C589.92 97.5849 590.95 97.1776 592.02 97.1776L888.548 97.1776C889.667 97.1776 890.74 97.6228 891.531 98.4151L897.498 104.39C898.29 105.183 898.734 106.257 898.734 107.378V189.585C898.734 190.693 898.3 191.756 897.525 192.546L818.227 273.368C817.434 274.177 816.35 274.632 815.218 274.632H644.292C643.2 274.632 642.151 275.056 641.365 275.814L603.299 312.506L563.33 352.042C562.527 352.836 562.076 353.919 562.076 355.048V395.852C562.076 396.697 562.328 397.522 562.801 398.221L569.399 407.98C570.184 409.141 571.493 409.836 572.893 409.836H722.739C723.825 409.836 724.868 409.417 725.653 408.666L742.155 392.885C742.988 392.088 743.46 390.984 743.46 389.83V378.63C743.46 377.51 743.904 376.435 744.696 375.643L747.287 373.048C748.078 372.255 749.152 371.81 750.271 371.81H886.554C887.674 371.81 888.749 371.364 889.54 370.569L998.767 260.968C999.557 260.175 1000 259.102 1000 257.983V37.9616Z" fill="#191919"/>
<path fill-rule="evenodd" clip-rule="evenodd" d="M168.776 187.263C168.776 188.461 169.284 189.603 170.174 190.405L211.079 227.233C211.854 227.931 212.859 228.317 213.901 228.317L392.806 228.317C395.136 228.317 397.025 226.425 397.025 224.092V194.385C397.025 193.272 396.587 192.204 395.805 191.413L349.846 144.907C349.053 144.105 347.973 143.654 346.847 143.654L172.996 143.654C170.665 143.654 168.776 145.546 168.776 147.879V187.263Z" fill="#191919"/>
<path fill-rule="evenodd" clip-rule="evenodd" d="M831.624 187.263C831.624 188.461 831.116 189.603 830.226 190.405L789.321 227.233C788.547 227.931 787.542 228.317 786.5 228.317L607.595 228.317C605.265 228.317 603.375 226.425 603.375 224.092V194.385C603.375 193.272 603.814 192.204 604.596 191.413L650.555 144.907C651.347 144.105 652.427 143.654 653.554 143.654L827.405 143.654C829.735 143.654 831.624 145.546 831.624 147.879V187.263Z" fill="#191919"/>
</svg>
