<svg width="200" height="100" viewBox="0 0 902 152" fill="white" xmlns="http://www.w3.org/2000/svg">
<path fill-rule="evenodd" clip-rule="evenodd" d="M5.58959 5.60422L0 11.209V60.1405V109.072L5.86717 114.919L11.7338 120.767H146.74H281.745V128.191V135.615L289.953 143.808L298.162 152H436.17H574.178L582.374 143.796L590.57 135.591V128.179V120.767H741.217H891.864L896.932 115.682L902 110.598V60.4648V10.3318L897.183 5.16904L892.365 0.00676688L451.772 0.00364382L11.1792 0L5.58959 5.60422ZM895.917 6.17942L900.438 10.7972V60.1764V109.556L895.631 114.381L890.824 119.205H739.916H589.008V126.877V134.55L581.072 142.494L573.137 150.438H436.17H299.204L291.516 142.767L283.828 135.095V127.151V119.205H148.088H12.3478L6.95509 113.901L1.56236 108.597V60.4236V12.2506L6.89103 6.90611L12.2197 1.56164H451.808H891.396L895.917 6.17942ZM20.6814 14.9835L18.2275 17.4743V59.9401V102.405L20.809 104.819L23.3905 107.233H36.8492H50.3079L50.9328 106.608L51.5577 105.984V89.9507V73.9178H89.2032H126.849L136.074 64.6453L145.299 55.3728V43.4486V31.5244L135.779 22.0088L126.259 12.4932H74.6973H23.1359L20.6814 14.9835ZM161.27 12.8404C161.079 13.0309 160.923 33.2615 160.923 57.7964V102.405L163.504 104.819L166.086 107.233H179.345C186.638 107.233 192.976 107.091 193.429 106.917L194.253 106.601V61.9999V17.3993L191.761 14.946L189.269 12.4932H175.443C167.839 12.4932 161.461 12.6493 161.27 12.8404ZM215.01 15.0215L212.48 17.5498V59.863V102.176L215.01 104.705L217.539 107.233H230.851C238.173 107.233 244.534 107.091 244.987 106.917L245.811 106.601V66.8347V27.0685H271.745H297.678L304.554 34.009L311.43 40.9494V73.7752V106.601L312.253 106.917C312.707 107.091 319.08 107.233 326.418 107.233H339.759L342.26 104.571L344.76 101.909V71.4811V41.053L330.474 26.7728L316.187 12.4932H266.863H217.539L215.01 15.0215ZM349.154 13.1704C349.01 13.5457 348.958 16.7674 349.04 20.33L349.186 26.8082L371.45 26.9441L393.714 27.0794V64.7426V102.405L396.295 104.819L398.877 107.233H412.335H425.794L426.419 106.608L427.044 105.984V66.526V27.0685H451.535H476.027L475.882 19.911L475.737 12.7534L412.576 12.6212L349.416 12.489L349.154 13.1704ZM497.529 26.6781L483.393 40.863L483.032 71.2156L482.671 101.569L485.507 104.403L488.342 107.237L548.961 107.105L609.579 106.973L609.724 99.8151L609.869 92.6575H562.983H516.098V79.9072V67.1569L558.152 67.0237L600.205 66.8904L600.35 59.7329L600.495 52.5753H558.296H516.098V46.8597V41.1441L522.934 34.1063L529.77 27.0685H569.805H609.839V19.7808V12.4932H560.752H511.664L497.529 26.6781ZM633.419 26.6859L619.214 40.8844V69.2136V97.5429L624.063 102.39L628.913 107.238L685.125 107.105L741.338 106.973L741.483 99.8151L741.627 92.6575H699.418H657.207L654.876 90.5092L652.544 88.3604V64.6047V40.8484L659.448 33.9621L666.351 27.0753L703.845 26.942L741.338 26.8082V19.7808V12.7534L694.481 12.6207L647.623 12.4874L633.419 26.6859ZM754.422 14.8908L752.032 17.4384L752.023 59.9218L752.014 102.405L754.595 104.819L757.177 107.233H770.636H784.094L784.719 106.608L785.344 105.984V85.2616V64.5401L817.763 64.6739L850.182 64.8082L850.318 85.6031L850.454 106.398L851.099 106.808C851.454 107.032 857.812 107.22 865.229 107.225L878.714 107.233L881.243 104.705L883.773 102.176V59.7485V17.3207L881.191 14.9069L878.609 12.4932H865.35C858.057 12.4932 851.719 12.6353 851.266 12.8091L850.442 13.1251V31.5488V49.9726H817.893H785.344V31.7841V13.5957L784.768 13.2396C784.451 13.0439 778.031 12.7623 770.502 12.6134L756.812 12.3432L754.422 14.8908ZM107.349 31.5874L111.969 36.1062V45.5708V55.0354L109.382 57.4539L106.796 59.8724L79.3067 59.7376L51.8181 59.6027L51.6806 43.3356L51.5432 27.0685H77.1361H102.729L107.349 31.5874ZM298.454 125.842L298.497 131.959L303.858 136.774L309.219 141.589H345.737H382.256V137.081V132.572L375.903 126.149L369.55 119.726H333.98H298.41L298.454 125.842ZM500.597 126.11L494.225 132.495V137.042V141.589H530.467H566.709L572.083 136.774L577.457 131.959L577.504 125.842L577.551 119.726H542.26H506.969L500.597 126.11Z" fill="white"/>
</svg>
