<svg width="884" height="172" viewBox="0 0 884 172" fill="none" xmlns="http://www.w3.org/2000/svg">
<path d="M481 162.769L493.744 150H564.326L564.232 162.233L553.484 171.863H481V162.769Z" fill="#9CD634"/>
<path d="M285.088 162.233L285 150H356.14L368.846 162.846V171.863H295.809L285.088 162.233Z" fill="#9CD634"/>
<path d="M135.513 59.96C135.945 60.536 136.233 61.112 136.233 61.688V83.576C136.233 84.152 135.945 84.872 135.513 85.304C132.489 88.328 120.825 99.992 117.801 102.872C117.369 103.448 116.793 103.592 116.073 103.592H41.7689C41.6249 103.592 41.3369 103.736 41.1929 103.88C40.9049 104.024 40.9049 104.312 40.9049 104.6V135.992C40.9049 136.568 40.4729 137 39.8969 137H13.1129C12.5369 137 11.9609 136.712 11.5289 136.28C10.5209 135.416 9.08088 133.832 8.21688 132.824C7.78488 132.392 7.49688 131.816 7.49688 131.24V47.432C7.49688 46.856 7.78488 46.136 8.21688 45.704C9.08088 44.84 10.6649 43.256 11.5289 42.392C11.9609 41.96 12.6809 41.672 13.2569 41.672C23.1929 41.672 106.137 41.672 116.073 41.672C116.793 41.672 117.369 41.96 117.801 42.392C120.825 45.416 132.489 57.08 135.513 59.96ZM102.825 83.576C102.825 80.264 102.825 69.752 102.825 66.44C102.825 65.864 102.537 65.288 102.105 64.856C100.233 62.984 95.6249 58.376 93.7529 56.648C93.3209 56.216 92.7449 55.928 92.1689 55.928C85.5449 55.928 48.2489 55.928 41.7689 55.928C41.3369 55.928 40.9049 56.36 40.9049 56.936V88.472C40.9049 88.616 40.9049 88.904 41.1929 89.048C41.3369 89.192 41.6249 89.336 41.7689 89.336C48.6809 89.336 90.1529 89.336 97.0649 89.336C97.6409 89.336 98.3609 89.048 98.7929 88.616C99.6569 87.752 101.241 86.168 102.105 85.304C102.537 84.872 102.825 84.152 102.825 83.576ZM180.669 45.704C181.101 46.136 181.389 46.856 181.389 47.432V135.992C181.389 136.568 180.957 137 180.381 137H153.741C153.165 137 152.445 136.712 152.013 136.28C151.149 135.416 149.565 133.832 148.701 132.968C148.269 132.536 147.981 131.96 147.981 131.24V42.68C147.981 42.104 148.413 41.672 148.989 41.672H175.629C176.205 41.672 176.781 41.96 177.213 42.392C178.221 43.256 179.805 44.84 180.669 45.704ZM281.186 55.928H230.066C229.49 55.928 229.202 56.504 229.202 56.936V135.992C229.202 136.568 228.77 137 228.194 137C223.73 137 204.722 137 201.122 137C200.834 137 200.402 136.856 200.114 136.568C199.25 135.704 197.09 133.544 196.226 132.68C195.938 132.392 195.794 131.96 195.794 131.672V47.432C195.794 46.856 196.082 46.136 196.514 45.704C197.378 44.84 198.962 43.256 199.826 42.392C200.258 41.96 200.978 41.672 201.554 41.672H300.194C300.626 41.672 300.914 41.816 301.202 42.104C304.514 45.416 325.538 66.584 328.85 69.896C329.138 70.184 329.282 70.472 329.282 70.904V131.672C329.282 131.96 329.138 132.392 328.85 132.68C327.986 133.544 325.97 135.704 325.106 136.568C324.818 136.856 324.386 137 323.954 137H296.882C296.594 137 296.45 136.856 296.306 136.712C296.018 136.568 296.018 136.28 296.018 135.992C296.018 128.36 296.018 76.952 296.018 70.904C296.018 69.32 281.906 55.928 281.186 55.928ZM461.897 41.672C462.473 41.672 462.905 42.104 462.905 42.68V55.064C462.905 55.352 462.761 55.496 462.617 55.784C462.329 55.928 462.185 56.072 461.897 56.072C455.561 56.072 419.993 55.928 413.801 55.928C413.513 55.928 413.225 56.072 413.081 56.216C412.937 56.504 412.793 56.648 412.793 56.936V135.992C412.793 136.568 412.361 137 411.785 137H385.289C384.569 137 383.993 136.712 383.561 136.28C382.553 135.272 380.969 133.688 380.105 132.824C379.673 132.392 379.385 131.816 379.385 131.096V56.936C379.385 56.36 378.953 55.928 378.521 55.928C372.617 55.928 341.081 55.928 335.177 55.928C334.601 55.928 334.169 55.496 334.169 55.064V42.68C334.169 42.104 334.601 41.672 335.177 41.672C346.265 41.672 450.809 41.672 461.897 41.672ZM598.025 122.744C598.457 122.744 598.889 123.176 598.889 123.608V135.992C598.889 136.568 598.457 137 598.025 137H475.913C475.337 137 474.617 136.712 474.185 136.28C473.321 135.416 471.737 133.832 470.873 132.968C470.441 132.536 470.153 131.816 470.153 131.24C470.153 123.896 470.297 78.536 470.441 71.192C470.441 70.616 470.585 70.04 471.017 69.608C474.905 65.72 494.201 46.28 498.089 42.392C498.521 41.96 499.097 41.672 499.817 41.672H597.881C598.457 41.672 598.889 42.104 598.889 42.68V55.064C598.889 55.496 598.457 55.928 597.881 55.928H518.825C518.249 55.928 517.529 56.216 517.097 56.648C514.649 59.096 506.585 67.16 504.137 69.608C503.705 70.04 503.417 70.616 503.417 71.336V81.272C503.417 81.56 503.561 81.704 503.705 81.848C503.849 82.136 504.137 82.136 504.425 82.136H588.377C588.809 82.136 589.241 82.568 589.241 83.144V95.528C589.241 96.104 588.809 96.536 588.377 96.536H504.425C503.849 96.536 503.417 96.968 503.417 97.4V121.736C503.417 122.312 503.849 122.744 504.425 122.744H598.025ZM642.656 69.608C642.08 70.04 641.936 70.616 641.936 71.336C641.936 77.384 641.792 110.648 641.792 116.984C641.792 117.56 642.08 118.136 642.512 118.568C643.52 119.576 645.104 121.16 645.968 122.024C646.4 122.456 646.976 122.744 647.696 122.744H731.504C731.936 122.744 732.368 123.176 732.368 123.608V135.992C732.368 136.568 731.936 137 731.504 137H619.04C618.464 137 617.888 136.712 617.312 136.28C615.584 134.552 610.976 129.944 609.248 128.216C608.816 127.784 608.528 127.064 608.528 126.488V71.336C608.528 70.616 608.816 70.04 609.248 69.608C613.136 65.72 632.432 46.28 636.464 42.392C636.896 41.96 637.472 41.672 638.048 41.672H731.504C731.936 41.672 732.368 42.104 732.368 42.68V55.064C732.368 55.496 731.936 55.928 731.504 55.928H657.2C656.48 55.928 655.904 56.216 655.472 56.648C653.024 59.096 644.96 67.16 642.656 69.608ZM876.166 46.28C876.31 46.424 876.454 46.712 876.454 46.856V131.24C876.454 131.96 876.166 132.536 875.734 132.968C874.726 133.832 873.286 135.416 872.278 136.28C871.846 136.712 871.27 137 870.694 137H844.054C843.478 137 843.046 136.568 843.046 135.992V95.096C843.046 94.52 842.614 94.088 842.038 94.088H777.238C777.094 94.088 776.806 94.232 776.662 94.376C776.374 94.52 776.374 94.808 776.374 95.096V135.992C776.374 136.568 775.942 137 775.366 137H748.726C748.15 137 747.43 136.712 746.998 136.28C746.134 135.416 744.55 133.832 743.686 132.968C743.254 132.536 742.966 131.96 742.966 131.24V47.432C742.966 46.856 743.254 46.28 743.686 45.848C744.55 44.84 746.134 43.256 746.998 42.392C747.43 41.96 748.15 41.672 748.726 41.672C753.19 41.672 771.046 41.816 775.366 41.96C775.942 41.96 776.374 42.392 776.374 42.824V78.824C776.374 79.112 776.374 79.4 776.662 79.544C776.806 79.688 777.094 79.832 777.238 79.832H842.038C842.614 79.832 843.046 79.4 843.046 78.824V42.824C843.046 42.248 843.478 41.816 844.054 41.816C848.374 41.816 866.23 41.816 870.694 41.816C871.27 41.816 871.846 41.96 872.278 42.392C873.43 43.544 875.446 45.56 876.166 46.28Z" fill="#2877CC"/>
</svg>
