<svg width="866" height="130" viewBox="0 0 866 130" fill="none" xmlns="http://www.w3.org/2000/svg">
<path fill-rule="evenodd" clip-rule="evenodd" d="M2.68148 2.98348L0.227539 5.4743V47.9401V90.4053L2.80907 92.8191L5.39061 95.2329H18.8493H32.3079L32.9329 94.6082L33.5578 93.9836V77.9507V61.9178H71.2033H108.849L118.074 52.6453L127.299 43.3728V31.4486V19.5244L117.779 10.0088L108.259 0.493179H56.6973H5.13594L2.68148 2.98348ZM143.27 0.840384C143.079 1.03091 142.923 21.2615 142.923 45.7965V90.4053L145.504 92.8191L148.086 95.2329H161.345C168.639 95.2329 174.976 95.0908 175.429 94.9169L176.253 94.6009V49.9999V5.39934L173.761 2.946L171.27 0.493179H157.443C149.839 0.493179 143.461 0.649343 143.27 0.840384ZM197.01 3.02148L194.48 5.54978V47.863V90.1763L197.01 92.7046L199.539 95.2329H212.851C220.173 95.2329 226.534 95.0908 226.987 94.9169L227.811 94.6009V54.8347V15.0685H253.745H279.678L286.554 22.009L293.43 28.9495V61.7752V94.6009L294.253 94.9169C294.707 95.0908 301.08 95.2329 308.418 95.2329H321.759L324.26 92.5708L326.76 89.9092V59.4811V29.053L312.474 14.7729L298.187 0.493179H248.863H199.539L197.01 3.02148ZM331.154 1.17041C331.01 1.54573 330.958 4.7674 331.04 8.33003L331.187 14.8082L353.45 14.9441L375.714 15.0795V52.7426V90.4053L378.295 92.8191L380.877 95.2329H394.335H407.794L408.419 94.6082L409.044 93.9836V54.5261V15.0685H433.535H458.027L457.882 7.91099L457.737 0.753453L394.577 0.621233L331.416 0.489015L331.154 1.17041ZM479.529 14.6781L465.393 28.863L465.032 59.2157L464.671 89.5688L467.507 92.4027L470.342 95.2371L530.961 95.1048L591.579 94.9726L591.724 87.8151L591.869 80.6576H544.983H498.098V67.9072V55.157L540.152 55.0237L582.205 54.8904L582.35 47.7329L582.495 40.5754H540.296H498.098V34.8598V29.1441L504.934 22.1063L511.77 15.0685H551.805H591.84V7.78085V0.493179H542.752H493.664L479.529 14.6781ZM615.419 14.6859L601.214 28.8844V57.2136V85.5429L606.063 90.3902L610.913 95.2376L667.125 95.1054L723.338 94.9726L723.483 87.8151L723.627 80.6576H681.418H639.208L636.876 78.5093L634.544 76.3604V52.6047V28.8485L641.448 21.9621L648.352 15.0753L685.845 14.942L723.338 14.8082V7.78085V0.753453L676.481 0.620712L629.623 0.487452L615.419 14.6859ZM736.422 2.89082L734.032 5.43839L734.023 47.9219L734.014 90.4053L736.595 92.8191L739.177 95.2329H752.636H766.094L766.719 94.6082L767.344 93.9836V73.2616V52.5402L799.763 52.6739L832.182 52.8082L832.318 73.6031L832.454 94.3979L833.1 94.8076C833.454 95.0325 839.812 95.2204 847.229 95.2251L860.714 95.2329L863.243 92.7046L865.773 90.1763V47.7485V5.32074L863.191 2.90696L860.61 0.493179H847.35C840.057 0.493179 833.719 0.635288 833.266 0.809151L832.442 1.12512V19.5489V37.9726H799.893H767.344V19.7842V1.5957L766.768 1.23964C766.451 1.04392 760.031 0.762302 752.502 0.613425L738.812 0.343262L736.422 2.89082ZM89.349 19.5874L93.9689 24.1063V33.5709V43.0355L91.3821 45.4539L88.7959 47.8724L61.3068 47.7376L33.8182 47.6028L33.6807 31.3356L33.5432 15.0685H59.1362H84.7291L89.349 19.5874ZM280.454 113.842L280.497 119.959L285.858 124.774L291.219 129.589H327.737H364.256V125.081V120.572L357.903 114.149L351.55 107.726H315.98H280.41L280.454 113.842ZM482.597 114.11L476.225 120.495V125.042V129.589H512.467H548.709L554.083 124.774L559.457 119.959L559.504 113.842L559.551 107.726H524.26H488.969L482.597 114.11Z" fill="white"/>
</svg>
